<mxfile host="app.diagrams.net" modified="2023-04-03T07:31:47.079Z" agent="Mozilla/5.0 (Windows NT 10.0; Win64; x64) AppleWebKit/537.36 (KHTML, like Gecko) Chrome/111.0.0.0 Safari/537.36 Edg/111.0.1661.54" etag="HlvovmdVV5AAmJF8jVj-" version="21.1.2" type="device">
  <diagram name="페이지-1" id="XDonlVWpQNWOzalK1THV">
    <mxGraphModel dx="1148" dy="657" grid="1" gridSize="10" guides="1" tooltips="1" connect="1" arrows="1" fold="1" page="1" pageScale="1" pageWidth="827" pageHeight="1169" math="0" shadow="0">
      <root>
        <mxCell id="0" />
        <mxCell id="1" parent="0" />
        <mxCell id="n5hyDHN-n4KtjRbbPuSV-17" value="1번 문제 : 가위바위보" style="rounded=0;whiteSpace=wrap;html=1;" vertex="1" parent="1">
          <mxGeometry x="102" y="30" width="138" height="40" as="geometry" />
        </mxCell>
        <mxCell id="n5hyDHN-n4KtjRbbPuSV-18" value="" style="shape=flexArrow;endArrow=classic;html=1;rounded=0;" edge="1" parent="1">
          <mxGeometry width="50" height="50" relative="1" as="geometry">
            <mxPoint x="170.76" y="80" as="sourcePoint" />
            <mxPoint x="171" y="120" as="targetPoint" />
          </mxGeometry>
        </mxCell>
        <mxCell id="n5hyDHN-n4KtjRbbPuSV-19" value="2번&amp;nbsp; 문제: 퀴즈" style="rounded=0;whiteSpace=wrap;html=1;" vertex="1" parent="1">
          <mxGeometry x="101" y="130" width="138" height="40" as="geometry" />
        </mxCell>
        <mxCell id="n5hyDHN-n4KtjRbbPuSV-26" value="" style="shape=flexArrow;endArrow=classic;html=1;rounded=0;" edge="1" parent="1">
          <mxGeometry width="50" height="50" relative="1" as="geometry">
            <mxPoint x="169.70999999999998" y="180" as="sourcePoint" />
            <mxPoint x="169.95" y="220" as="targetPoint" />
          </mxGeometry>
        </mxCell>
        <mxCell id="n5hyDHN-n4KtjRbbPuSV-27" value="3번 문제: 곱셈" style="rounded=0;whiteSpace=wrap;html=1;" vertex="1" parent="1">
          <mxGeometry x="101" y="230" width="138" height="40" as="geometry" />
        </mxCell>
        <mxCell id="n5hyDHN-n4KtjRbbPuSV-28" value="" style="shape=flexArrow;endArrow=classic;html=1;rounded=0;" edge="1" parent="1">
          <mxGeometry width="50" height="50" relative="1" as="geometry">
            <mxPoint x="169.70999999999998" y="280" as="sourcePoint" />
            <mxPoint x="169.95" y="320" as="targetPoint" />
          </mxGeometry>
        </mxCell>
        <mxCell id="n5hyDHN-n4KtjRbbPuSV-29" value="4번 문제: 숫자야구" style="rounded=0;whiteSpace=wrap;html=1;" vertex="1" parent="1">
          <mxGeometry x="101" y="330" width="138" height="40" as="geometry" />
        </mxCell>
        <mxCell id="n5hyDHN-n4KtjRbbPuSV-30" value="" style="shape=flexArrow;endArrow=classic;html=1;rounded=0;" edge="1" parent="1">
          <mxGeometry width="50" height="50" relative="1" as="geometry">
            <mxPoint x="169.70999999999998" y="380" as="sourcePoint" />
            <mxPoint x="169.95" y="420" as="targetPoint" />
          </mxGeometry>
        </mxCell>
        <mxCell id="n5hyDHN-n4KtjRbbPuSV-31" value="5번 문제: 행맨" style="rounded=0;whiteSpace=wrap;html=1;" vertex="1" parent="1">
          <mxGeometry x="101" y="430" width="138" height="40" as="geometry" />
        </mxCell>
        <mxCell id="n5hyDHN-n4KtjRbbPuSV-32" value="" style="shape=flexArrow;endArrow=classic;html=1;rounded=0;" edge="1" parent="1">
          <mxGeometry width="50" height="50" relative="1" as="geometry">
            <mxPoint x="169.70999999999998" y="480" as="sourcePoint" />
            <mxPoint x="169.95" y="520" as="targetPoint" />
          </mxGeometry>
        </mxCell>
        <mxCell id="n5hyDHN-n4KtjRbbPuSV-33" value="6번 문제: 업앤다운" style="rounded=0;whiteSpace=wrap;html=1;" vertex="1" parent="1">
          <mxGeometry x="102" y="530" width="138" height="40" as="geometry" />
        </mxCell>
        <mxCell id="n5hyDHN-n4KtjRbbPuSV-34" value="" style="shape=flexArrow;endArrow=classic;html=1;rounded=0;" edge="1" parent="1">
          <mxGeometry width="50" height="50" relative="1" as="geometry">
            <mxPoint x="170.70999999999998" y="580" as="sourcePoint" />
            <mxPoint x="170.95" y="620" as="targetPoint" />
          </mxGeometry>
        </mxCell>
        <mxCell id="n5hyDHN-n4KtjRbbPuSV-35" value="7번 문제:&amp;nbsp; 순발력 게임" style="rounded=0;whiteSpace=wrap;html=1;" vertex="1" parent="1">
          <mxGeometry x="101" y="630" width="138" height="40" as="geometry" />
        </mxCell>
        <mxCell id="n5hyDHN-n4KtjRbbPuSV-36" value="" style="shape=flexArrow;endArrow=classic;html=1;rounded=0;" edge="1" parent="1">
          <mxGeometry width="50" height="50" relative="1" as="geometry">
            <mxPoint x="169.70999999999998" y="680" as="sourcePoint" />
            <mxPoint x="169.95" y="720" as="targetPoint" />
          </mxGeometry>
        </mxCell>
        <mxCell id="n5hyDHN-n4KtjRbbPuSV-37" value="종료" style="ellipse;whiteSpace=wrap;html=1;" vertex="1" parent="1">
          <mxGeometry x="121.5" y="730" width="99" height="50" as="geometry" />
        </mxCell>
      </root>
    </mxGraphModel>
  </diagram>
</mxfile>
